<svg width="140" height="44" viewBox="0 0 140 44" fill="none" xmlns="http://www.w3.org/2000/svg">
<g clip-path="url(#clip0_102_1181)">
<mask id="mask0_102_1181" style="mask-type:luminance" maskUnits="userSpaceOnUse" x="0" y="0" width="140" height="44">
<path d="M139.997 0H0.664062V44H139.997V0Z" fill="white"/>
</mask>
<g mask="url(#mask0_102_1181)">
<path d="M138.411 31.4698H128.964V24.3818C128.963 24.2443 128.946 24.1074 128.912 23.9742C128.842 23.7269 128.714 23.4996 128.538 23.3108C128.363 23.122 128.145 22.977 127.902 22.8877L127.437 22.7064H134.307V25.0591C134.307 25.4235 134.453 25.7731 134.713 26.0308C134.972 26.2885 135.325 26.4333 135.692 26.4333H137.846V22.6614C137.847 22.2063 137.756 21.7556 137.581 21.3351C137.406 20.9146 137.149 20.5325 136.825 20.2106C136.5 19.8887 136.115 19.6334 135.692 19.4592C135.268 19.285 134.814 19.1953 134.356 19.1953H125.423V31.4698H121.591V26.4093H120.184C119.626 26.4126 119.092 26.6314 118.695 27.0192C118.297 27.407 118.068 27.9332 118.055 28.4862C118.055 28.4952 118.055 28.5042 118.055 28.5132V44.0006C120.215 43.8762 121.595 42.4106 121.595 40.1958V34.9854H140.001V33.0493C140.001 32.8419 139.96 32.6366 139.88 32.445C139.801 32.2533 139.684 32.0792 139.536 31.9325C139.388 31.7858 139.213 31.6695 139.02 31.5901C138.827 31.5107 138.62 31.4698 138.411 31.4698Z" fill="white"/>
<path d="M130.62 0C129.892 0.00145101 129.183 0.231813 128.595 0.658011C128.007 1.08421 127.57 1.68432 127.348 2.37218L127.281 2.58048H120.795C119.974 2.58048 119.187 2.90398 118.607 3.47981C118.027 4.05564 117.701 4.83663 117.701 5.65098V12.0827H110.641V34.8679H110.817C111.709 34.8667 112.564 34.5146 113.195 33.8887C113.825 33.2628 114.18 32.4143 114.181 31.5292V17.4549C114.18 17.3576 114.172 17.2604 114.157 17.1642C114.093 16.8157 113.927 16.4933 113.681 16.2365C113.435 15.9797 113.119 15.7996 112.771 15.7181L112.389 15.5953H127.249C128.171 15.5953 129.054 15.2321 129.705 14.5858C130.356 13.9394 130.722 13.0627 130.722 12.1486V0H130.62ZM127.177 12.0827H121.24V7.79239C121.239 7.52185 121.165 7.25656 121.025 7.02465C120.884 6.79274 120.683 6.60286 120.443 6.47517L119.72 6.09454H127.177V12.0827Z" fill="white"/>
<path d="M118.07 19.1914V23.2374L118.147 23.149C118.272 23.0076 118.425 22.8943 118.597 22.8168C118.769 22.7392 118.956 22.6992 119.145 22.6994H121.584V19.1914H118.07Z" fill="white"/>
<path d="M3.29581 20.9522H12.6572C12.9908 20.9528 13.321 20.8848 13.6269 20.7525C13.9327 20.6202 14.2077 20.4265 14.4343 20.1835C14.9062 19.6877 15.1688 19.0313 15.1681 18.3493V13.8537H14.1625C14.0341 13.8537 13.9068 13.8788 13.7881 13.9276C13.6694 13.9764 13.5616 14.0479 13.4707 14.1381C13.3798 14.2282 13.3078 14.3353 13.2586 14.4531C13.2094 14.5709 13.1841 14.6972 13.1841 14.8247V18.3493C13.1841 18.6924 12.9425 18.9816 12.6587 18.9816H8.28753V12.4375H7.1385C6.91678 12.4379 6.70425 12.5255 6.54746 12.6811C6.39068 12.8367 6.30242 13.0477 6.30202 13.2677V13.8582H3.29581C2.59971 13.8617 1.93306 14.1374 1.44041 14.6255C0.947765 15.1136 0.668822 15.7747 0.664062 16.4656L0.664063 18.3493C0.670007 19.0393 0.949474 19.6994 1.442 20.1865C1.93452 20.6736 2.60049 20.9487 3.29581 20.9522ZM2.64958 16.4656C2.65268 16.2965 2.72176 16.1351 2.84228 16.0155C2.96281 15.8959 3.12539 15.8273 3.29581 15.8242H6.30202V18.9816H3.29581C3.12579 18.9756 2.9642 18.9067 2.84284 18.7883C2.78194 18.7323 2.73334 18.6643 2.70008 18.5888C2.66683 18.5133 2.64964 18.4317 2.64958 18.3493V16.4656Z" fill="white"/>
<path d="M25.1223 16.4657C25.1164 15.775 24.8365 15.1144 24.3434 14.6269C23.8503 14.1395 23.1835 13.8644 22.4876 13.8613H17.6649V14.8248C17.6653 15.0924 17.7727 15.349 17.9636 15.538C18.1544 15.7271 18.413 15.8333 18.6826 15.8333H22.4876C22.657 15.8406 22.818 15.9088 22.9405 16.0252C23.0013 16.0817 23.0497 16.1499 23.083 16.2257C23.1162 16.3014 23.1335 16.3831 23.1338 16.4657V17.1221H23.1429V18.9818H18.0258C17.7703 18.9818 17.5253 19.0825 17.3446 19.2618C17.164 19.4411 17.0625 19.6843 17.0625 19.9378V20.9523H25.1223V20.6062H25.1404V16.4927H25.1223V16.4657Z" fill="white"/>
<path d="M77.8373 16.3424C77.8412 16.1735 77.9104 16.0125 78.0306 15.8929C78.0897 15.833 78.1601 15.7852 78.2379 15.7523C78.3156 15.7193 78.3991 15.702 78.4836 15.7011H79.4046V18.3685C79.4105 19.0571 79.6887 19.716 80.1792 20.2031C80.6698 20.6902 81.3334 20.9667 82.0273 20.9729H83.9252C84.6207 20.969 85.2867 20.6936 85.7792 20.2062C86.2716 19.7188 86.5511 19.0587 86.557 18.3685V16.3424C86.5534 15.6508 86.275 14.9885 85.7822 14.4994C85.2895 14.0104 84.6221 13.734 83.9252 13.7305H78.4896C77.793 13.7344 77.1261 14.0109 76.6336 14.5C76.1412 14.989 75.8629 15.6511 75.8594 16.3424V22.6363H76.8468C76.9779 22.6363 77.1077 22.6107 77.2288 22.5609C77.3499 22.5111 77.4599 22.4382 77.5526 22.3462C77.6452 22.2542 77.7188 22.145 77.7689 22.0248C77.8191 21.9046 77.8449 21.7758 77.8449 21.6458L77.8373 16.3424ZM81.3886 15.6936H83.9237C84.0082 15.6945 84.0917 15.7118 84.1695 15.7448C84.2472 15.7777 84.3176 15.8255 84.3767 15.8854C84.4973 16.0049 84.5671 16.1659 84.5715 16.335V18.3535C84.568 18.5217 84.4985 18.6818 84.3778 18.7999C84.2571 18.918 84.0947 18.9847 83.9252 18.9859H82.0258C81.9426 18.9856 81.8602 18.9684 81.7839 18.9354C81.7076 18.9024 81.6388 18.8543 81.5819 18.7941C81.4639 18.6766 81.3949 18.5192 81.3886 18.3535V15.6936Z" fill="white"/>
<path d="M33.33 23.7089C33.8235 23.2209 34.102 22.5586 34.1046 21.8672V20.9531H64.7555C65.0996 20.9534 65.4403 20.8856 65.7576 20.7536C66.075 20.6216 66.3626 20.4281 66.6036 20.1844C66.848 19.9439 67.0421 19.658 67.175 19.343C67.3079 19.028 67.377 18.6902 67.3782 18.3487V9.35744H66.3817C66.2511 9.35665 66.1217 9.3815 66.0008 9.43054C65.8799 9.47959 65.77 9.55188 65.6774 9.64324C65.5848 9.7346 65.5113 9.84324 65.4611 9.9629C65.411 10.0826 65.3852 10.2109 65.3852 10.3405V18.3427C65.3848 18.5104 65.3175 18.6712 65.1982 18.7899C65.0788 18.9087 64.917 18.9758 64.748 18.9766H60.1534V13.1877H59.0526C58.9364 13.1877 58.8214 13.2104 58.714 13.2546C58.6067 13.2987 58.5092 13.3634 58.427 13.4449C58.3448 13.5265 58.2797 13.6233 58.2352 13.7298C58.1907 13.8363 58.1678 13.9505 58.1678 14.0659V18.9781H56.2895V14.1483H54.304V18.9825H51.9501V14.1483H51.0019C50.7269 14.1487 50.4633 14.2573 50.2688 14.4502C50.0744 14.6432 49.965 14.9048 49.9646 15.1778V18.9825H40.6757V16.4665C40.6814 16.2977 40.751 16.1372 40.8705 16.0169C40.9276 15.9545 40.9977 15.9049 41.0758 15.8715C41.1539 15.8382 41.2384 15.8218 41.3234 15.8236H44.7388C44.8933 15.8238 45.0464 15.7938 45.1892 15.7352C45.332 15.6766 45.4617 15.5906 45.571 15.4822C45.6802 15.3737 45.7669 15.245 45.8259 15.1032C45.8849 14.9615 45.9152 14.8096 45.915 14.6563V13.8546H41.328C40.6311 13.8581 39.9637 14.1344 39.471 14.6235C38.9782 15.1126 38.6998 15.7749 38.6962 16.4665V18.9825H34.1046V16.4665C34.101 15.7749 33.8226 15.1126 33.3298 14.6235C32.8371 14.1344 32.1697 13.8581 31.4729 13.8546H29.439C28.7437 13.8605 28.0787 14.1378 27.5879 14.6266C27.097 15.1155 26.8199 15.7764 26.8163 16.4665V18.3487C26.8219 19.0375 27.0999 19.6965 27.5905 20.1837C28.0811 20.6709 28.745 20.9472 29.439 20.9531H32.1266V21.8672C32.1258 21.9511 32.1082 22.034 32.0751 22.1111C32.0419 22.1882 31.9938 22.2581 31.9334 22.3168C31.8129 22.4362 31.6506 22.5049 31.4804 22.5086H26.9824C26.8514 22.5086 26.7216 22.5342 26.6005 22.584C26.4794 22.6338 26.3694 22.7067 26.2767 22.7987C26.184 22.8907 26.1105 22.9999 26.0603 23.1201C26.0102 23.2402 25.9844 23.3691 25.9844 23.4991V24.4792H31.4729C32.1701 24.4774 32.8381 24.2009 33.33 23.7104M29.439 18.984C29.272 18.9778 29.1135 18.9093 28.9951 18.7922C28.9333 18.7346 28.8843 18.6649 28.851 18.5876C28.8177 18.5102 28.801 18.4268 28.8018 18.3427V16.4665C28.803 16.2983 28.8702 16.1372 28.9892 16.0174C29.1082 15.8976 29.2696 15.8286 29.439 15.8251H31.4729C31.6434 15.8286 31.8059 15.8979 31.9258 16.0184C31.9862 16.0771 32.0344 16.147 32.0675 16.2241C32.1007 16.3013 32.1182 16.3841 32.1191 16.468V18.984H29.439Z" fill="white"/>
<path d="M71.0525 9.12501H70.2463C70.091 9.12442 69.9372 9.15425 69.7936 9.2128C69.65 9.27136 69.5195 9.35747 69.4095 9.46621C69.2995 9.57494 69.2122 9.70416 69.1527 9.84645C69.0931 9.98874 69.0625 10.1413 69.0625 10.2954V20.953H71.048L71.0525 9.12501Z" fill="white"/>
<path d="M94.9888 18.9815V16.4655C94.9946 16.2969 95.0636 16.1366 95.1821 16.0159C95.2397 15.9539 95.3098 15.9046 95.3878 15.8713C95.4659 15.838 95.5501 15.8214 95.6351 15.8226H99.9745V13.8535H95.6336C94.9367 13.857 94.2694 14.1334 93.7766 14.6224C93.2838 15.1115 93.0054 15.7738 93.0018 16.4655V18.9815H90.0243V13.8535H88.0388V21.8662C88.0364 22.0339 87.97 22.1946 87.8531 22.3157C87.7929 22.3764 87.7212 22.4245 87.6422 22.4575C87.5631 22.4904 87.4783 22.5074 87.3926 22.5075H85.4297V24.4781H87.3926C88.0892 24.4746 88.7563 24.1985 89.249 23.7097C89.7417 23.221 90.0203 22.5591 90.0243 21.8677V20.9536H102.022V18.9815H94.9888Z" fill="white"/>
<path d="M8.07022 21.3789L6.64062 22.7977L8.07022 24.2165L9.49982 22.7977L8.07022 21.3789Z" fill="white"/>
<path d="M11.039 21.3789L9.60938 22.7978L11.039 24.2166L12.4686 22.7978L11.039 21.3789Z" fill="white"/>
<path d="M5.49991 9.33984L4.07031 10.7587L5.49991 12.1775L6.9295 10.7587L5.49991 9.33984Z" fill="white"/>
<path d="M8.46866 9.33984L7.03906 10.7587L8.46866 12.1775L9.89825 10.7587L8.46866 9.33984Z" fill="white"/>
<path d="M88.9296 9.90039L87.5 11.3193L88.9296 12.7381L90.3592 11.3193L88.9296 9.90039Z" fill="white"/>
<path d="M7.78186 30.18H2.95018C2.72539 30.1796 2.50995 30.0907 2.35114 29.9328C2.19233 29.7749 2.10313 29.5609 2.10313 29.3378V29.1265C2.10293 29.0014 2.12759 28.8775 2.17568 28.7619C2.22377 28.6463 2.29437 28.5412 2.38342 28.4527C2.47247 28.3642 2.57823 28.294 2.69466 28.246C2.81108 28.1981 2.93588 28.1735 3.06192 28.1735H6.98765C7.24155 28.1739 7.48496 28.274 7.66464 28.4521C7.84432 28.6301 7.94564 28.8715 7.94643 29.1235V29.1745H9.29326V29.1235C9.29126 28.5164 9.04653 27.9348 8.61281 27.5066C8.1791 27.0784 7.59187 26.8386 6.9801 26.8398H3.06192C2.45107 26.8406 1.86548 27.0817 1.43355 27.5104C1.00162 27.9391 0.758612 28.5203 0.757812 29.1265V29.3378C0.758212 29.9153 0.989433 30.4691 1.40074 30.8776C1.81204 31.286 2.36982 31.5159 2.95169 31.5167H7.78337C7.94355 31.5167 8.09716 31.5799 8.21043 31.6923C8.32369 31.8047 8.38732 31.9571 8.38732 32.1161V32.6751C8.38732 32.899 8.29781 33.1137 8.13844 33.2722C7.97906 33.4306 7.76284 33.5198 7.53725 33.5202H2.95471C2.72912 33.5198 2.51291 33.4306 2.35353 33.2722C2.19415 33.1137 2.10464 32.899 2.10464 32.6751V32.5192H0.757812V32.6766C0.758611 33.2546 0.990328 33.8087 1.40215 34.2174C1.81398 34.6262 2.3723 34.8561 2.95471 34.8569H7.53725C8.11966 34.8561 8.67799 34.6262 9.08981 34.2174C9.50164 33.8087 9.73335 33.2546 9.73415 32.6766V32.1176C9.73375 31.6039 9.52794 31.1112 9.1619 30.748C8.79586 30.3847 8.29951 30.1804 7.78186 30.18Z" fill="white"/>
<path d="M34.1195 27.3403V32.6031C34.1191 32.8494 34.0203 33.0855 33.8448 33.2597C33.6694 33.4338 33.4315 33.5318 33.1833 33.5322H28.6219C28.3738 33.5318 28.1359 33.4338 27.9604 33.2597C27.7849 33.0855 27.6862 32.8494 27.6858 32.6031V27.5426C27.6858 27.3564 27.6114 27.1779 27.4789 27.0461C27.3464 26.9144 27.1667 26.8402 26.9792 26.8398H26.3359V32.6031C26.3357 32.9005 26.3946 33.1951 26.5092 33.4699C26.6238 33.7447 26.7918 33.9944 27.0037 34.2047C27.2156 34.415 27.4672 34.5817 27.7441 34.6955C28.021 34.8092 28.3177 34.8676 28.6174 34.8674H33.1788C33.4785 34.8676 33.7754 34.8092 34.0523 34.6955C34.3293 34.5818 34.581 34.415 34.793 34.2048C35.005 33.9945 35.1732 33.7448 35.2879 33.47C35.4027 33.1952 35.4618 32.9006 35.4618 32.6031V26.8398H34.6177C34.5516 26.8398 34.4861 26.8527 34.425 26.8779C34.3639 26.9031 34.3084 26.94 34.2617 26.9865C34.215 27.033 34.1779 27.0881 34.1528 27.1489C34.1276 27.2096 34.1147 27.2746 34.1149 27.3403" fill="white"/>
<path d="M45.4355 26.8379H39.4141V34.867H45.4355C46.2585 34.8658 47.0474 34.5408 47.6293 33.9633C48.2112 33.3858 48.5387 32.6028 48.5399 31.786V29.9188C48.5387 29.1021 48.2112 28.3191 47.6293 27.7416C47.0474 27.164 46.2585 26.839 45.4355 26.8379ZM47.1931 31.783C47.1927 32.2455 47.0074 32.689 46.6778 33.016C46.3483 33.343 45.9015 33.5269 45.4355 33.5273H40.7549V28.1731H45.4355C45.9015 28.1735 46.3483 28.3574 46.6778 28.6844C47.0074 29.0114 47.1927 29.4549 47.1931 29.9173V31.783Z" fill="white"/>
<path d="M52.3281 27.3987V34.8569H53.1238C53.2687 34.8569 53.4078 34.8003 53.5109 34.6994C53.614 34.5984 53.673 34.4612 53.675 34.3175V26.8398H52.8913C52.742 26.8398 52.5987 26.8987 52.4931 27.0035C52.3875 27.1083 52.3281 27.2505 52.3281 27.3987Z" fill="white"/>
<path d="M18.6303 26.877H17.149L12.5786 34.1674C12.5348 34.2357 12.5104 34.3144 12.508 34.3953C12.5056 34.4762 12.5252 34.5562 12.5648 34.6269C12.6044 34.6977 12.6624 34.7565 12.7329 34.7972C12.8034 34.8379 12.8836 34.859 12.9651 34.8582H13.7306L15.076 32.7108H20.6882L22.0336 34.8582H23.0467C23.1034 34.8581 23.159 34.843 23.2078 34.8144C23.2567 34.7858 23.2969 34.7448 23.3245 34.6957C23.352 34.6465 23.3659 34.5909 23.3645 34.5347C23.3632 34.4784 23.3468 34.4235 23.317 34.3757L18.6303 26.877ZM15.8415 31.485L17.8753 28.2257L19.9167 31.485H15.8415Z" fill="white"/>
<path d="M69.6377 26.877H68.155L63.5453 34.2393C63.5071 34.3007 63.4861 34.371 63.4845 34.4431C63.4829 34.5152 63.5007 34.5864 63.5361 34.6493C63.5715 34.7123 63.6232 34.7647 63.6859 34.8012C63.7486 34.8376 63.8199 34.8568 63.8926 34.8567H64.7442L66.0895 32.7093H71.7033L73.0471 34.8567H73.9304C73.9999 34.8569 74.0682 34.8387 74.1282 34.8038C74.1882 34.769 74.2378 34.7188 74.2716 34.6586C74.3055 34.5983 74.3226 34.5302 74.321 34.4612C74.3194 34.3922 74.2992 34.3249 74.2626 34.2663L69.6377 26.877ZM66.855 31.485L68.8964 28.2257L70.9363 31.485H66.855Z" fill="white"/>
<path d="M85.6326 33.5397H79.9071L86.2758 28.0581V26.8398H77.7992V27.5411C77.8 27.7091 77.8678 27.8699 77.9878 27.9884C78.1078 28.1069 78.2702 28.1735 78.4394 28.1735H84.0804L77.6875 33.6806V34.8794H86.3166V34.2231C86.3168 34.1338 86.2992 34.0453 86.2649 33.9628C86.2306 33.8803 86.1803 33.8053 86.1168 33.7421C86.0532 33.6789 85.9778 33.6287 85.8947 33.5945C85.8116 33.5603 85.7225 33.5427 85.6326 33.5427" fill="white"/>
<path d="M96.4182 33.5959L92.5046 26.8809H90.9766V34.8561H91.6258C91.8108 34.8561 91.9883 34.7832 92.1191 34.6533C92.2499 34.5235 92.3234 34.3474 92.3234 34.1638V29.2381L95.5984 34.8561H97.2396L100.513 29.2381V34.1488C100.513 34.3361 100.588 34.5158 100.721 34.6484C100.855 34.781 101.035 34.8557 101.224 34.8561H101.857V26.8809H100.332L96.4182 33.5959Z" fill="white"/>
</g>
</g>
<defs>
<clipPath id="clip0_102_1181">
<rect width="140" height="44" fill="white"/>
</clipPath>
</defs>
</svg>
